<mxfile host="app.diagrams.net" modified="2021-04-21T11:37:49.166Z" agent="5.0 (Windows NT 6.1; Win64; x64) AppleWebKit/537.36 (KHTML, like Gecko) Chrome/89.0.4389.128 Safari/537.36" etag="XnqxfsjfzxuNpfQlkq_r" version="14.6.0" type="github">
  <diagram id="rBmS2KjPbJGWgHEUHs_N" name="Page-1">
    <mxGraphModel dx="1422" dy="832" grid="1" gridSize="10" guides="1" tooltips="1" connect="1" arrows="1" fold="1" page="1" pageScale="1" pageWidth="827" pageHeight="1169" math="0" shadow="0">
      <root>
        <mxCell id="0" />
        <mxCell id="1" parent="0" />
        <mxCell id="y-pMTpiknRT16SE1_xch-5" style="edgeStyle=orthogonalEdgeStyle;rounded=0;orthogonalLoop=1;jettySize=auto;html=1;exitX=0.5;exitY=1;exitDx=0;exitDy=0;entryX=0.5;entryY=0;entryDx=0;entryDy=0;" edge="1" parent="1" source="y-pMTpiknRT16SE1_xch-3" target="y-pMTpiknRT16SE1_xch-4">
          <mxGeometry relative="1" as="geometry" />
        </mxCell>
        <mxCell id="y-pMTpiknRT16SE1_xch-3" value="&lt;font style=&quot;font-size: 18px&quot;&gt;开始&lt;/font&gt;" style="rounded=1;whiteSpace=wrap;html=1;shadow=0;sketch=0;glass=0;" vertex="1" parent="1">
          <mxGeometry x="360" y="80" width="100" height="50" as="geometry" />
        </mxCell>
        <mxCell id="y-pMTpiknRT16SE1_xch-12" style="edgeStyle=orthogonalEdgeStyle;rounded=0;orthogonalLoop=1;jettySize=auto;html=1;exitX=0.5;exitY=1;exitDx=0;exitDy=0;" edge="1" parent="1" source="y-pMTpiknRT16SE1_xch-4" target="y-pMTpiknRT16SE1_xch-9">
          <mxGeometry relative="1" as="geometry" />
        </mxCell>
        <mxCell id="y-pMTpiknRT16SE1_xch-4" value="&lt;font style=&quot;font-size: 18px&quot;&gt;读取云存储文件&lt;/font&gt;" style="rounded=0;whiteSpace=wrap;html=1;shadow=0;glass=0;sketch=0;" vertex="1" parent="1">
          <mxGeometry x="337" y="200" width="146" height="60" as="geometry" />
        </mxCell>
        <mxCell id="y-pMTpiknRT16SE1_xch-46" style="edgeStyle=orthogonalEdgeStyle;rounded=0;orthogonalLoop=1;jettySize=auto;html=1;exitX=0.5;exitY=1;exitDx=0;exitDy=0;entryX=1;entryY=0.5;entryDx=0;entryDy=0;" edge="1" parent="1" source="y-pMTpiknRT16SE1_xch-6" target="y-pMTpiknRT16SE1_xch-32">
          <mxGeometry relative="1" as="geometry" />
        </mxCell>
        <mxCell id="y-pMTpiknRT16SE1_xch-6" value="&lt;font style=&quot;font-size: 18px&quot;&gt;调用getDefaultPlan&lt;/font&gt;" style="rounded=0;whiteSpace=wrap;html=1;shadow=0;glass=0;sketch=0;" vertex="1" parent="1">
          <mxGeometry x="600" y="350" width="170" height="60" as="geometry" />
        </mxCell>
        <mxCell id="y-pMTpiknRT16SE1_xch-19" style="edgeStyle=orthogonalEdgeStyle;rounded=0;orthogonalLoop=1;jettySize=auto;html=1;entryX=0;entryY=0.5;entryDx=0;entryDy=0;" edge="1" parent="1" source="y-pMTpiknRT16SE1_xch-9" target="y-pMTpiknRT16SE1_xch-6">
          <mxGeometry relative="1" as="geometry" />
        </mxCell>
        <mxCell id="y-pMTpiknRT16SE1_xch-23" style="edgeStyle=orthogonalEdgeStyle;rounded=0;orthogonalLoop=1;jettySize=auto;html=1;" edge="1" parent="1" source="y-pMTpiknRT16SE1_xch-9" target="y-pMTpiknRT16SE1_xch-18">
          <mxGeometry relative="1" as="geometry" />
        </mxCell>
        <mxCell id="y-pMTpiknRT16SE1_xch-9" value="&lt;font style=&quot;font-size: 18px&quot;&gt;读取失败或&lt;br&gt;文件不存在&lt;/font&gt;" style="html=1;whiteSpace=wrap;aspect=fixed;shape=isoRectangle;rounded=1;shadow=0;glass=0;sketch=0;" vertex="1" parent="1">
          <mxGeometry x="326.67" y="330" width="166.66" height="100" as="geometry" />
        </mxCell>
        <mxCell id="y-pMTpiknRT16SE1_xch-24" style="edgeStyle=orthogonalEdgeStyle;rounded=0;orthogonalLoop=1;jettySize=auto;html=1;entryX=0.5;entryY=0;entryDx=0;entryDy=0;" edge="1" parent="1" source="y-pMTpiknRT16SE1_xch-18" target="y-pMTpiknRT16SE1_xch-21">
          <mxGeometry relative="1" as="geometry" />
        </mxCell>
        <mxCell id="y-pMTpiknRT16SE1_xch-39" style="edgeStyle=orthogonalEdgeStyle;rounded=0;orthogonalLoop=1;jettySize=auto;html=1;entryX=1;entryY=0.5;entryDx=0;entryDy=0;" edge="1" parent="1" source="y-pMTpiknRT16SE1_xch-18" target="y-pMTpiknRT16SE1_xch-32">
          <mxGeometry relative="1" as="geometry">
            <Array as="points">
              <mxPoint x="640" y="525" />
              <mxPoint x="640" y="1375" />
            </Array>
          </mxGeometry>
        </mxCell>
        <mxCell id="y-pMTpiknRT16SE1_xch-18" value="&lt;span style=&quot;font-size: 18px&quot;&gt;文件内容&lt;br&gt;是否为空&lt;/span&gt;" style="html=1;whiteSpace=wrap;aspect=fixed;shape=isoRectangle;rounded=1;shadow=0;glass=0;sketch=0;" vertex="1" parent="1">
          <mxGeometry x="335" y="480" width="150" height="90" as="geometry" />
        </mxCell>
        <mxCell id="y-pMTpiknRT16SE1_xch-27" style="edgeStyle=orthogonalEdgeStyle;rounded=0;orthogonalLoop=1;jettySize=auto;html=1;exitX=0.5;exitY=1;exitDx=0;exitDy=0;entryX=0.507;entryY=0.011;entryDx=0;entryDy=0;entryPerimeter=0;" edge="1" parent="1" source="y-pMTpiknRT16SE1_xch-21" target="y-pMTpiknRT16SE1_xch-25">
          <mxGeometry relative="1" as="geometry" />
        </mxCell>
        <mxCell id="y-pMTpiknRT16SE1_xch-21" value="&lt;font style=&quot;font-size: 18px&quot;&gt;调用getUsedPlan&lt;/font&gt;" style="rounded=0;whiteSpace=wrap;html=1;shadow=0;glass=0;sketch=0;" vertex="1" parent="1">
          <mxGeometry x="325" y="640" width="170" height="60" as="geometry" />
        </mxCell>
        <mxCell id="y-pMTpiknRT16SE1_xch-28" style="edgeStyle=orthogonalEdgeStyle;rounded=0;orthogonalLoop=1;jettySize=auto;html=1;entryX=0.5;entryY=0;entryDx=0;entryDy=0;" edge="1" parent="1" source="y-pMTpiknRT16SE1_xch-25" target="y-pMTpiknRT16SE1_xch-26">
          <mxGeometry relative="1" as="geometry" />
        </mxCell>
        <mxCell id="y-pMTpiknRT16SE1_xch-36" style="edgeStyle=orthogonalEdgeStyle;rounded=0;orthogonalLoop=1;jettySize=auto;html=1;entryX=1;entryY=0.5;entryDx=0;entryDy=0;" edge="1" parent="1" source="y-pMTpiknRT16SE1_xch-25" target="y-pMTpiknRT16SE1_xch-29">
          <mxGeometry relative="1" as="geometry">
            <Array as="points">
              <mxPoint x="560" y="815" />
              <mxPoint x="560" y="1090" />
            </Array>
          </mxGeometry>
        </mxCell>
        <mxCell id="y-pMTpiknRT16SE1_xch-25" value="&lt;span style=&quot;font-size: 18px&quot;&gt;调用失败&lt;br&gt;&lt;/span&gt;" style="html=1;whiteSpace=wrap;aspect=fixed;shape=isoRectangle;rounded=1;shadow=0;glass=0;sketch=0;" vertex="1" parent="1">
          <mxGeometry x="335" y="770" width="150" height="90" as="geometry" />
        </mxCell>
        <mxCell id="y-pMTpiknRT16SE1_xch-30" style="edgeStyle=orthogonalEdgeStyle;rounded=0;orthogonalLoop=1;jettySize=auto;html=1;exitX=0.5;exitY=1;exitDx=0;exitDy=0;entryX=0.5;entryY=0;entryDx=0;entryDy=0;" edge="1" parent="1" source="y-pMTpiknRT16SE1_xch-26" target="y-pMTpiknRT16SE1_xch-29">
          <mxGeometry relative="1" as="geometry" />
        </mxCell>
        <mxCell id="y-pMTpiknRT16SE1_xch-26" value="&lt;font style=&quot;font-size: 18px&quot;&gt;调用getDefaultPlan&lt;/font&gt;" style="rounded=0;whiteSpace=wrap;html=1;shadow=0;glass=0;sketch=0;" vertex="1" parent="1">
          <mxGeometry x="325" y="930" width="170" height="60" as="geometry" />
        </mxCell>
        <mxCell id="y-pMTpiknRT16SE1_xch-47" style="edgeStyle=orthogonalEdgeStyle;rounded=0;orthogonalLoop=1;jettySize=auto;html=1;exitX=0.5;exitY=1;exitDx=0;exitDy=0;entryX=0.5;entryY=0;entryDx=0;entryDy=0;" edge="1" parent="1" source="y-pMTpiknRT16SE1_xch-29" target="y-pMTpiknRT16SE1_xch-32">
          <mxGeometry relative="1" as="geometry" />
        </mxCell>
        <mxCell id="y-pMTpiknRT16SE1_xch-29" value="&lt;span style=&quot;font-size: 18px&quot;&gt;将方案写入云存储&lt;/span&gt;" style="rounded=0;whiteSpace=wrap;html=1;shadow=0;glass=0;sketch=0;" vertex="1" parent="1">
          <mxGeometry x="325" y="1060" width="170" height="60" as="geometry" />
        </mxCell>
        <mxCell id="y-pMTpiknRT16SE1_xch-32" value="&lt;span style=&quot;font-size: 18px&quot;&gt;结束&lt;/span&gt;" style="rounded=1;whiteSpace=wrap;html=1;shadow=0;sketch=0;glass=0;" vertex="1" parent="1">
          <mxGeometry x="360" y="1350" width="100" height="50" as="geometry" />
        </mxCell>
        <mxCell id="y-pMTpiknRT16SE1_xch-37" value="&lt;font style=&quot;font-size: 18px&quot;&gt;N&lt;/font&gt;" style="text;html=1;strokeColor=none;fillColor=none;align=center;verticalAlign=middle;whiteSpace=wrap;rounded=0;shadow=0;glass=0;sketch=0;" vertex="1" parent="1">
          <mxGeometry x="510" y="790" width="40" height="20" as="geometry" />
        </mxCell>
        <mxCell id="y-pMTpiknRT16SE1_xch-38" value="&lt;font style=&quot;font-size: 18px&quot;&gt;Y&lt;/font&gt;" style="text;html=1;strokeColor=none;fillColor=none;align=center;verticalAlign=middle;whiteSpace=wrap;rounded=0;shadow=0;glass=0;sketch=0;" vertex="1" parent="1">
          <mxGeometry x="419" y="880" width="40" height="20" as="geometry" />
        </mxCell>
        <mxCell id="y-pMTpiknRT16SE1_xch-40" value="&lt;font style=&quot;font-size: 18px&quot;&gt;N&lt;/font&gt;" style="text;html=1;strokeColor=none;fillColor=none;align=center;verticalAlign=middle;whiteSpace=wrap;rounded=0;shadow=0;glass=0;sketch=0;" vertex="1" parent="1">
          <mxGeometry x="520" y="500" width="40" height="20" as="geometry" />
        </mxCell>
        <mxCell id="y-pMTpiknRT16SE1_xch-42" value="&lt;font style=&quot;font-size: 18px&quot;&gt;Y&lt;/font&gt;" style="text;html=1;strokeColor=none;fillColor=none;align=center;verticalAlign=middle;whiteSpace=wrap;rounded=0;shadow=0;glass=0;sketch=0;" vertex="1" parent="1">
          <mxGeometry x="410" y="590" width="40" height="20" as="geometry" />
        </mxCell>
        <mxCell id="y-pMTpiknRT16SE1_xch-43" value="&lt;font style=&quot;font-size: 18px&quot;&gt;N&lt;/font&gt;" style="text;html=1;strokeColor=none;fillColor=none;align=center;verticalAlign=middle;whiteSpace=wrap;rounded=0;shadow=0;glass=0;sketch=0;" vertex="1" parent="1">
          <mxGeometry x="414" y="440" width="40" height="20" as="geometry" />
        </mxCell>
        <mxCell id="y-pMTpiknRT16SE1_xch-44" value="&lt;font style=&quot;font-size: 18px&quot;&gt;Y&lt;/font&gt;" style="text;html=1;strokeColor=none;fillColor=none;align=center;verticalAlign=middle;whiteSpace=wrap;rounded=0;shadow=0;glass=0;sketch=0;" vertex="1" parent="1">
          <mxGeometry x="530" y="350" width="40" height="20" as="geometry" />
        </mxCell>
        <mxCell id="y-pMTpiknRT16SE1_xch-57" style="edgeStyle=orthogonalEdgeStyle;rounded=0;orthogonalLoop=1;jettySize=auto;html=1;exitX=0.5;exitY=1;exitDx=0;exitDy=0;entryX=0;entryY=0.5;entryDx=0;entryDy=0;" edge="1" parent="1" source="y-pMTpiknRT16SE1_xch-48" target="y-pMTpiknRT16SE1_xch-55">
          <mxGeometry relative="1" as="geometry" />
        </mxCell>
        <mxCell id="y-pMTpiknRT16SE1_xch-48" value="&lt;span style=&quot;font-size: 18px&quot;&gt;修改使用中的方案&lt;/span&gt;" style="rounded=0;whiteSpace=wrap;html=1;shadow=0;glass=0;sketch=0;" vertex="1" parent="1">
          <mxGeometry x="850" y="170" width="170" height="60" as="geometry" />
        </mxCell>
        <mxCell id="y-pMTpiknRT16SE1_xch-52" style="edgeStyle=orthogonalEdgeStyle;rounded=0;orthogonalLoop=1;jettySize=auto;html=1;exitX=0.5;exitY=1;exitDx=0;exitDy=0;entryX=0.5;entryY=0;entryDx=0;entryDy=0;" edge="1" parent="1" source="y-pMTpiknRT16SE1_xch-49" target="y-pMTpiknRT16SE1_xch-50">
          <mxGeometry relative="1" as="geometry" />
        </mxCell>
        <mxCell id="y-pMTpiknRT16SE1_xch-53" style="edgeStyle=orthogonalEdgeStyle;rounded=0;orthogonalLoop=1;jettySize=auto;html=1;exitX=0;exitY=0.5;exitDx=0;exitDy=0;entryX=0.5;entryY=0;entryDx=0;entryDy=0;" edge="1" parent="1" source="y-pMTpiknRT16SE1_xch-49" target="y-pMTpiknRT16SE1_xch-48">
          <mxGeometry relative="1" as="geometry" />
        </mxCell>
        <mxCell id="y-pMTpiknRT16SE1_xch-54" style="edgeStyle=orthogonalEdgeStyle;rounded=0;orthogonalLoop=1;jettySize=auto;html=1;exitX=1;exitY=0.5;exitDx=0;exitDy=0;entryX=0.5;entryY=0;entryDx=0;entryDy=0;" edge="1" parent="1" source="y-pMTpiknRT16SE1_xch-49" target="y-pMTpiknRT16SE1_xch-51">
          <mxGeometry relative="1" as="geometry" />
        </mxCell>
        <mxCell id="y-pMTpiknRT16SE1_xch-49" value="&lt;font style=&quot;font-size: 18px&quot;&gt;开始&lt;/font&gt;" style="rounded=1;whiteSpace=wrap;html=1;shadow=0;sketch=0;glass=0;" vertex="1" parent="1">
          <mxGeometry x="1135" y="30" width="100" height="50" as="geometry" />
        </mxCell>
        <mxCell id="y-pMTpiknRT16SE1_xch-56" style="edgeStyle=orthogonalEdgeStyle;rounded=0;orthogonalLoop=1;jettySize=auto;html=1;exitX=0.5;exitY=1;exitDx=0;exitDy=0;entryX=0.5;entryY=0;entryDx=0;entryDy=0;" edge="1" parent="1" source="y-pMTpiknRT16SE1_xch-50" target="y-pMTpiknRT16SE1_xch-55">
          <mxGeometry relative="1" as="geometry" />
        </mxCell>
        <mxCell id="y-pMTpiknRT16SE1_xch-50" value="&lt;span style=&quot;font-size: 18px&quot;&gt;删除使用中的方案&lt;/span&gt;" style="rounded=0;whiteSpace=wrap;html=1;shadow=0;glass=0;sketch=0;" vertex="1" parent="1">
          <mxGeometry x="1100" y="170" width="170" height="60" as="geometry" />
        </mxCell>
        <mxCell id="y-pMTpiknRT16SE1_xch-58" style="edgeStyle=orthogonalEdgeStyle;rounded=0;orthogonalLoop=1;jettySize=auto;html=1;exitX=0.5;exitY=1;exitDx=0;exitDy=0;entryX=1;entryY=0.5;entryDx=0;entryDy=0;" edge="1" parent="1" source="y-pMTpiknRT16SE1_xch-51" target="y-pMTpiknRT16SE1_xch-55">
          <mxGeometry relative="1" as="geometry" />
        </mxCell>
        <mxCell id="y-pMTpiknRT16SE1_xch-51" value="&lt;span style=&quot;font-size: 18px&quot;&gt;使用一个方案&lt;/span&gt;" style="rounded=0;whiteSpace=wrap;html=1;shadow=0;glass=0;sketch=0;" vertex="1" parent="1">
          <mxGeometry x="1350" y="170" width="170" height="60" as="geometry" />
        </mxCell>
        <mxCell id="y-pMTpiknRT16SE1_xch-60" style="edgeStyle=orthogonalEdgeStyle;rounded=0;orthogonalLoop=1;jettySize=auto;html=1;exitX=0.5;exitY=1;exitDx=0;exitDy=0;entryX=0.5;entryY=0;entryDx=0;entryDy=0;" edge="1" parent="1" source="y-pMTpiknRT16SE1_xch-55" target="y-pMTpiknRT16SE1_xch-59">
          <mxGeometry relative="1" as="geometry" />
        </mxCell>
        <mxCell id="y-pMTpiknRT16SE1_xch-55" value="&lt;span style=&quot;font-size: 18px&quot;&gt;将方案写入云存储&lt;/span&gt;" style="rounded=0;whiteSpace=wrap;html=1;shadow=0;glass=0;sketch=0;" vertex="1" parent="1">
          <mxGeometry x="1100" y="370" width="170" height="60" as="geometry" />
        </mxCell>
        <mxCell id="y-pMTpiknRT16SE1_xch-59" value="&lt;span style=&quot;font-size: 18px&quot;&gt;结束&lt;/span&gt;" style="rounded=1;whiteSpace=wrap;html=1;shadow=0;sketch=0;glass=0;" vertex="1" parent="1">
          <mxGeometry x="1135" y="510" width="100" height="50" as="geometry" />
        </mxCell>
        <mxCell id="y-pMTpiknRT16SE1_xch-61" value="&lt;font style=&quot;font-size: 18px&quot; color=&quot;#ff0000&quot;&gt;写失败的后果：&lt;br&gt;云存储文件已存储了方案；&lt;br&gt;云存储还未存储方案&lt;br&gt;&lt;/font&gt;" style="text;html=1;strokeColor=none;fillColor=none;align=center;verticalAlign=middle;whiteSpace=wrap;rounded=0;shadow=0;glass=0;sketch=0;" vertex="1" parent="1">
          <mxGeometry x="1330" y="520" width="240" height="80" as="geometry" />
        </mxCell>
        <mxCell id="y-pMTpiknRT16SE1_xch-62" value="" style="endArrow=classic;html=1;" edge="1" parent="1">
          <mxGeometry width="50" height="50" relative="1" as="geometry">
            <mxPoint x="1370" y="510" as="sourcePoint" />
            <mxPoint x="1270" y="450" as="targetPoint" />
          </mxGeometry>
        </mxCell>
      </root>
    </mxGraphModel>
  </diagram>
</mxfile>
